#!OML:ASF X:\für Bonn\!DataBase\2005_08_10_Bjorn_Final\c3d\bjorn.ASF
:FULLY-SPECIFIED
:DEGREES
646
root -0.269613 1.65625 10.4651 -2438.31 0.678534 182.89
lowerback 6.12927 1.64999 -0.913886
upperback 5.34839 1.80225 -2.55776
thorax 2.13464 0.735964 -2.20417
lowerneck -16.6546 -4.45091 0.147733
upperneck 8.64274 -6.29702 3.34633
head 5.41176 -2.72491 0.44878
rclavicle -4.85035e-014 6.5102e-014
rhumerus -430.333 51.7863 251.98
rradius 112.144
rwrist -29.1544
rhand 5.74147 9.34067
rfingers 7.12502
rthumb 31.0769 -18.0461
lclavicle -4.85035e-014 6.5102e-014
lhumerus -73.556 -67.8035 115.972
lradius 110.199
lwrist 35.0327
lhand -4.11426 -11.851
lfingers 7.12502
lthumb 21.6442 736.959
rfemur -201.993 -171.037 191.553
rtibia 56.3941
rfoot 15.8948 3.16229
rtoes -4.92063
lfemur 189.368 179.86 164.683
ltibia 10.8275
lfoot 12.7337 4.54583
ltoes -16.0201
647
root -0.265314 1.65591 10.4579 -2438.18 0.616508 182.821
lowerback 5.9857 1.67355 -0.989793
upperback 5.30532 1.8369 -2.59076
thorax 2.16933 0.753127 -2.19382
lowerneck -16.7085 -4.44272 0.199874
upperneck 8.74275 -6.29822 3.30567
head 5.44904 -2.72434 0.425429
rclavicle -5.88403e-014 6.58971e-014
rhumerus -430.299 51.7671 251.986
rradius 112.121
rwrist -29.1245
rhand 5.73884 9.33631
rfingers 7.12502
rthumb 31.0744 -18.0509
lclavicle -5.88403e-014 6.58971e-014
lhumerus -73.5078 -67.7796 115.903
lradius 110.187
lwrist 35.0028
lhand -4.09383 -11.8251
lfingers 7.12502
lthumb 21.6639 736.983
rfemur -201.447 -170.975 191.586
rtibia 55.0558
rfoot 15.7393 3.16932
rtoes -5.04552
lfemur 188.964 179.794 164.649
ltibia 11.3409
lfoot 12.5008 4.61631
ltoes -16.0078
648
root -0.261859 1.65502 10.4509 -2438.05 0.554997 182.767
lowerback 5.84977 1.69363 -1.06333
upperback 5.27078 1.86679 -2.61621
thorax 2.20831 0.767649 -2.17684
lowerneck -16.7466 -4.45343 0.185586
upperneck 8.82061 -6.31611 3.32858
head 5.48138 -2.72936 0.431427
rclavicle 2.46493e-014 6.16232e-015
rhumerus -430.253 51.7685 252.036
rradius 112.097
rwrist -29.0664
rhand 5.7249 9.35584
rfingers 7.12502
rthumb 31.0612 -18.034
lclavicle 2.46493e-014 6.16232e-015
lhumerus -73.4751 -67.7787 115.863
lradius 110.184
lwrist 35.0014
lhand -4.11825 -11.7799
lfingers 7.12502
lthumb 21.6404 737.031
rfemur -200.889 -170.906 191.608
rtibia 53.7382
rfoot 15.5706 3.20382
rtoes -5.2808
lfemur 188.583 179.751 164.608
ltibia 11.8245
lfoot 12.2828 4.70797
ltoes -15.9198
649
root -0.257638 1.6542 10.4435 -2437.92 0.466814 182.701
lowerback 5.72174 1.71011 -1.17061
upperback 5.22353 1.89057 -2.64968
thorax 2.22865 0.778343 -2.14924
lowerneck -16.8004 -4.4491 0.166655
upperneck 8.95239 -6.31521 3.34092
head 5.53284 -2.72562 0.435623
rclavicle -2.38542e-014 -4.96962e-016
rhumerus -430.241 51.7911 252.032
rradius 112.083
rwrist -29.0787
rhand 5.74616 9.33413
rfingers 7.12502
rthumb 31.0814 -18.0518
lclavicle -2.38542e-014 -4.96962e-016
lhumerus -73.4517 -67.737 115.82
lradius 110.166
lwrist 34.9464
lhand -4.14917 -11.7753
lfingers 7.12502
lthumb 21.6107 737.039
rfemur -200.348 -170.817 191.603
rtibia 52.4367
rfoot 15.4206 3.29738
rtoes -5.70506
lfemur 188.224 179.782 164.518
ltibia 12.2755
lfoot 12.0584 4.85674
ltoes -16.0111
650
root -0.253475 1.654 10.4364 -2437.78 0.391028 182.63
lowerback 5.57548 1.73457 -1.26032
upperback 5.1806 1.92617 -2.68659
thorax 2.26472 0.795304 -2.13492
lowerneck -16.8594 -4.45025 0.194267
upperneck 9.06042 -6.32704 3.32803
head 5.57548 -2.7283 0.423596
rclavicle -6.20208e-014 6.35117e-014
rhumerus -430.198 51.7879 252.061
rradius 112.073
rwrist -29.0702
rhand 5.73376 9.31704
rfingers 7.12502
rthumb 31.0696 -18.0711
lclavicle -6.20208e-014 6.35117e-014
lhumerus -73.4464 -67.733 115.785
lradius 110.166
lwrist 34.9443
lhand -4.16074 -11.7616
lfingers 7.12502
lthumb 21.5996 737.054
rfemur -199.826 -170.744 191.607
rtibia 51.1636
rfoot 15.2696 3.38025
rtoes -6.06421
lfemur 187.87 179.734 164.462
ltibia 12.6924
lfoot 11.8633 4.97049
ltoes -15.914
651
root -0.249705 1.65328 10.4302 -2437.65 0.342433 182.566
lowerback 5.44491 1.7502 -1.32104
upperback 5.14225 1.95133 -2.70752
thorax 2.29691 0.807918 -2.12021
lowerneck -16.8787 -4.45308 0.164652
upperneck 9.1056 -6.32926 3.34645
head 5.59456 -2.72795 0.432857
rclavicle 9.54166e-015 -9.14409e-015
rhumerus -430.142 51.8127 252.106
rradius 112.038
rwrist -29.0937
rhand 5.73447 9.31025
rfingers 7.12502
rthumb 31.0703 -18.0778
lclavicle 9.54166e-015 -9.14409e-015
lhumerus -73.3718 -67.6941 115.7
lradius 110.152
lwrist 34.9114
lhand -4.14311 -11.7569
lfingers 7.12502
lthumb 21.6165 737.057
rfemur -199.292 -170.663 191.64
rtibia 49.9141
rfoot 15.131 3.5091
rtoes -6.66383
lfemur 187.544 179.681 164.438
ltibia 13.0736
lfoot 11.7017 5.06186
ltoes -15.8032
652
root -0.245647 1.65254 10.4246 -2437.51 0.281936 182.495
lowerback 5.29637 1.77005 -1.39253
upperback 5.09367 1.98273 -2.73568
thorax 2.32858 0.823654 -2.10667
lowerneck -16.9155 -4.45595 0.148783
upperneck 9.21044 -6.33662 3.35555
head 5.63473 -2.72892 0.435452
rclavicle -7.95139e-015 1.14301e-014
rhumerus -430.092 51.8103 252.148
rradius 112.009
rwrist -29.0823
rhand 5.76154 9.3238
rfingers 7.12502
rthumb 31.0961 -18.0593
lclavicle -7.95139e-015 1.14301e-014
lhumerus -73.3697 -67.6742 115.677
lradius 110.147
lwrist 34.894
lhand -4.17835 -11.7451
lfingers 7.12502
lthumb 21.5827 737.072
rfemur -198.793 -170.559 191.657
rtibia 48.7017
rfoot 15.0102 3.69319
rtoes -7.24556
lfemur 187.216 179.635 164.397
ltibia 13.4268
lfoot 11.5638 5.15326
ltoes -15.838
653
root -0.241923 1.65197 10.4196 -2437.37 0.209233 182.441
lowerback 5.15871 1.77895 -1.48213
upperback 5.047 1.99861 -2.76654
thorax 2.35523 0.831005 -2.08553
lowerneck -16.9515 -4.45551 0.151463
upperneck 9.30564 -6.34139 3.35071
head 5.67061 -2.72928 0.431144
rclavicle 7.15625e-015 9.64106e-015
rhumerus -430.028 51.8461 252.19
rradius 111.983
rwrist -29.1441
rhand 5.79804 9.305
rfingers 7.12502
rthumb 31.1309 -18.0715
lclavicle 7.15625e-015 9.64106e-015
lhumerus -73.3455 -67.6341 115.633
lradius 110.145
lwrist 34.8379
lhand -4.19475 -11.6994
lfingers 7.12502
lthumb 21.5669 737.12
rfemur -198.301 -170.449 191.654
rtibia 47.5236
rfoot 14.8953 3.88086
rtoes -7.91319
lfemur 186.904 179.57 164.344
ltibia 13.7585
lfoot 11.4381 5.19844
ltoes -15.902
654
root -0.238416 1.65146 10.4143 -2437.24 0.140991 182.378
lowerback 5.02202 1.79641 -1.56786
upperback 4.99901 2.02624 -2.78713
thorax 2.38001 0.844234 -2.05627
lowerneck -17.0002 -4.45557 0.128844
upperneck 9.40697 -6.34171 3.34167
head 5.71106 -2.72888 0.429565
rclavicle -6.67916e-014 7.63333e-014
rhumerus -429.998 51.8602 252.239
rradius 111.966
rwrist -29.1956
rhand 5.81319 9.29149
rfingers 7.12502
rthumb 31.1453 -18.0822
lclavicle -6.67916e-014 7.63333e-014
lhumerus -73.3538 -67.5966 115.626
lradius 110.137
lwrist 34.8242
lhand -4.20125 -11.7025
lfingers 7.12502
lthumb 21.5607 737.117
rfemur -197.824 -170.325 191.648
rtibia 46.3875
rfoot 14.8222 4.06747
rtoes -8.40121
lfemur 186.602 179.518 164.294
ltibia 14.0726
lfoot 11.3296 5.27576
ltoes -15.8733
655
root -0.234642 1.65035 10.4084 -2437.1 0.0738683 182.305
lowerback 4.88787 1.8175 -1.64042
upperback 4.94285 2.05886 -2.82045
thorax 2.39602 0.860496 -2.04773
lowerneck -16.9986 -4.46247 0.117681
upperneck 9.47263 -6.35341 3.35462
head 5.73269 -2.73253 0.433473
rclavicle -6.75868e-014 7.37491e-014
rhumerus -429.93 51.8658 252.293
rradius 111.94
rwrist -29.2962
rhand 5.91194 9.24503
rfingers 7.12502
rthumb 31.2394 -18.1105
lclavicle -6.75868e-014 7.37491e-014
lhumerus -73.3835 -67.5755 115.622
lradius 110.141
lwrist 34.7992
lhand -4.21656 -11.6905
lfingers 7.12502
lthumb 21.546 737.131
rfemur -197.372 -170.195 191.644
rtibia 45.2863
rfoot 14.7696 4.27423
rtoes -8.55354
lfemur 186.303 179.475 164.242
ltibia 14.3757
lfoot 11.2006 5.40172
ltoes -15.6637
656
root -0.230339 1.64919 10.4033 -2436.94 -0.00228212 182.258
lowerback 4.73645 1.82737 -1.73877
upperback 4.89736 2.07692 -2.84801
thorax 2.43123 0.868521 -2.01781
lowerneck -17.0352 -4.46891 0.084737
upperneck 9.54865 -6.36165 3.37571
head 5.76475 -2.73407 0.442805
rclavicle -4.77083e-015 1.42131e-014
rhumerus -429.849 51.8723 252.361
rradius 111.912
rwrist -29.3689
rhand 5.97964 9.23832
rfingers 7.12502
rthumb 31.3039 -18.1048
lclavicle -4.77083e-015 1.42131e-014
lhumerus -73.3422 -67.5395 115.562
lradius 110.129
lwrist 34.7605
lhand -4.21566 -11.7365
lfingers 7.12502
lthumb 21.5469 737.085
rfemur -196.942 -170.085 191.633
rtibia 44.2206
rfoot 14.7398 4.42876
rtoes -8.38731
lfemur 185.984 179.423 164.186
ltibia 14.6814
lfoot 11.114 5.45131
ltoes -15.5947
